Coordinates
version=1
nRows=17
nColumns=40
inDegrees=yes

Units are S.I. units (second, meters, Newtons, ...)
Angles are in degrees.

endheader
time	pelvis_tilt	pelvis_list	pelvis_rotation	pelvis_tx	pelvis_ty	pelvis_tz	hip_flexion_r	hip_adduction_r	hip_rotation_r	knee_angle_r	knee_angle_r_beta	ankle_angle_r	subtalar_angle_r	mtp_angle_r	hip_flexion_l	hip_adduction_l	hip_rotation_l	knee_angle_l	knee_angle_l_beta	ankle_angle_l	subtalar_angle_l	mtp_angle_l	lumbar_extension	lumbar_bending	lumbar_rotation	arm_flex_r	arm_add_r	arm_rot_r	elbow_flex_r	pro_sup_r	wrist_flex_r	wrist_dev_r	arm_flex_l	arm_add_l	arm_rot_l	elbow_flex_l	pro_sup_l	wrist_flex_l	wrist_dev_l
     41.43328571	     -7.35012773	     -5.18183667	      6.03155290	      0.89526736	      0.91569462	      0.47583765	      2.88146249	      4.36557892	    -16.68584487	     12.60705334	     12.60705334	     18.30864857	      0.57152001	     -1.16917664	     34.23682331	     -4.76914593	      1.10986317	     17.50489398	     17.50489398	      6.51659961	     -5.14597813	      5.20159475	     -8.61369724	      3.16143147	      2.76163997	     39.33183403	    -14.05864829	      6.42451437	     96.35059750	     44.46304810	      0.00000000	      0.00000000	     -7.37800528	     -5.61044594	     -3.28436346	     28.73155672	     44.90713968	      0.00000000	      0.00000000
     41.44657143	     -7.34352818	     -5.33198548	      5.81262150	      0.89733661	      0.91442449	      0.47502879	      2.26721800	      4.50792582	    -16.47423759	     12.61830243	     12.61830243	     18.63993469	      0.75684192	     -1.24871345	     34.06709508	     -5.00391428	      0.50262479	     18.05751222	     18.05751222	      5.63559149	     -5.57442886	      5.29796181	     -8.43442591	      3.14519356	      3.09921472	     38.95194882	    -13.63006828	      6.66464999	     96.13628517	     44.46306788	      0.00000000	      0.00000000	     -7.13906217	     -5.82631873	     -3.30214680	     28.84046360	     44.91710020	      0.00000000	      0.00000000
     41.45985714	     -7.21002027	     -5.56356652	      5.62194002	      0.89971283	      0.91318392	      0.47407054	      1.49252948	      4.71747277	    -16.43980956	     12.64172219	     12.64172219	     19.20890449	      1.31026724	     -0.65034905	     33.78491843	     -5.31554391	      0.18318708	     18.68860217	     18.68860217	      3.43681912	     -6.66408707	      1.86973584	     -8.25568602	      3.23178501	      2.81539381	     39.08859020	    -12.50915398	      7.00994297	     93.78280861	     44.56671967	      0.00000000	      0.00000000	     -7.25240167	     -6.06291996	     -3.05477788	     29.15328615	     44.92872880	      0.00000000	      0.00000000
     41.47314286	     -7.16933072	     -5.65872150	      5.41578368	      0.90191067	      0.91227100	      0.47300855	      0.91284539	      4.75129316	    -16.22303254	     12.80603967	     12.80603967	     19.48678478	      1.39777762	     -0.73996640	     33.56061306	     -5.51884361	     -0.19750434	     19.41952654	     19.41952654	      2.58565634	     -7.05780103	      2.03961915	     -8.17425192	      3.16641978	      2.94834302	     38.47441693	    -12.21423706	      7.25209802	     93.55638181	     44.56488948	      0.00000000	      0.00000000	     -6.96305793	     -6.30340984	     -3.08387975	     29.26892225	     44.93978096	      0.00000000	      0.00000000
     41.48642857	     -7.02896846	     -5.80042875	      5.17225514	      0.90437304	      0.91126262	      0.47177020	      0.35275297	      4.77672331	    -15.96253314	     13.26495512	     13.26495512	     19.82659379	      1.46872308	     -0.76335390	     33.66839514	     -5.72102871	     -0.00300256	     21.08035316	     21.08035316	      2.11934248	     -8.25307266	      1.54520618	     -8.03642915	      3.12580581	      3.31152849	     37.63991755	    -12.00336591	      7.50539566	     92.41342010	     44.59547174	      0.00000000	      0.00000000	     -6.56385817	     -6.53340000	     -3.08878034	     29.46523937	     44.95518531	      0.00000000	      0.00000000
     41.49971429	     -6.83312742	     -5.78542492	      4.92345505	      0.90684186	      0.91095574	      0.47037450	     -0.23820989	      4.61251763	    -15.68178098	     13.77600645	     13.77600645	     20.03508920	      1.46121030	     -0.83352601	     33.36051499	     -5.78918474	      0.03222720	     22.14900969	     22.14900969	      1.83832544	     -8.94876320	      1.38613407	     -8.08106315	      2.94830606	      3.45900227	     36.57523255	    -11.61569203	      7.84733355	     91.64174197	     44.60714538	      0.00000000	      0.00000000	     -6.12567277	     -6.83116881	     -3.10844364	     29.60305988	     44.96899308	      0.00000000	      0.00000000
     41.51300000	     -6.80036170	     -5.79226129	      4.67640410	      0.90890303	      0.91055860	      0.46872254	     -0.24881469	      4.33964391	    -15.35196035	     15.01263450	     15.01263450	     20.37316139	      1.08132715	     -0.75601361	     33.27547448	     -5.68876149	      0.66903456	     23.23210265	     23.23210265	      1.43890348	    -10.66421525	      1.06646295	     -7.86773959	      2.79715146	      3.17128008	     36.30315611	    -10.96117725	      8.30165733	     88.43077239	     44.71430503	      0.00000000	      0.00000000	     -5.76652904	     -7.06380028	     -2.98297010	     29.47662078	     44.99102829	      0.00000000	      0.00000000
     41.52628571	     -6.49456540	     -5.80642945	      4.47761726	      0.91129194	      0.91107843	      0.46698428	     -0.75141127	      4.13650914	    -15.13809855	     15.84937972	     15.84937972	     20.34964443	      0.97618651	     -0.89244223	     32.79297161	     -5.72643628	      0.85980238	     24.19329093	     24.19329093	      1.72629646	    -11.20562373	      0.88432998	     -8.09038511	      2.66835397	      3.19944359	     34.91672743	    -10.74129093	      8.67532971	     87.73223654	     44.72047558	      0.00000000	      0.00000000	     -5.23750320	     -7.36108405	     -3.02983080	     29.66232181	     45.00949499	      0.00000000	      0.00000000
     41.53957143	     -6.53995176	     -5.72257290	      4.12980296	      0.91307417	      0.91112452	      0.46503956	     -0.15670115	      3.58256709	    -14.78162913	     18.01478911	     18.01478911	     20.38433008	      0.25336665	     -1.53240365	     32.75961505	     -5.56322827	      1.26363949	     25.29641969	     25.29641969	      2.18901258	    -12.36918121	      1.11087288	     -7.91990255	      2.45718236	      3.69156899	     33.92306708	    -11.16441727	      8.96512777	     85.69110694	     44.77804388	      0.00000000	      0.00000000	     -4.45120626	     -7.53005389	     -3.07767233	     29.84206843	     45.04022401	      0.00000000	      0.00000000
     41.55285714	     -6.40546045	     -5.59472856	      3.82344117	      0.91497156	      0.91192420	      0.46295392	      0.23227505	      3.00886992	    -14.43835009	     20.10694289	     20.10694289	     20.10164048	     -0.50901555	     -2.28043048	     32.30338420	     -5.36122915	      1.54378879	     26.00449885	     26.00449885	      2.83314738	    -13.23486166	      1.50111454	     -7.97886181	      2.22213690	      3.83613005	     32.68529908	    -11.22146369	      9.40171111	     83.76899615	     44.82542273	      0.00000000	      0.00000000	     -3.69898448	     -7.75331756	     -3.11981624	     29.88046291	     45.06936309	      0.00000000	      0.00000000
     41.56614286	     -6.37683640	     -5.48264791	      3.50422985	      0.91660774	      0.91284236	      0.46085541	      1.02245608	      2.39156216	    -14.07498622	     22.64660968	     22.64660968	     19.46057047	     -1.53442722	     -3.46612725	     31.85807715	     -5.15548818	      1.82390338	     26.49682623	     26.49682623	      3.60291188	    -13.93473764	      2.11535359	     -7.93449875	      1.94866106	      3.99951119	     31.45577310	    -11.33475215	      9.92424187	     81.40648941	     44.88486412	      0.00000000	      0.00000000	     -2.90671141	     -7.93165320	     -3.17917531	     29.86038121	     45.10406544	      0.00000000	      0.00000000
     41.57942857	     -6.24943276	     -5.36560757	      3.23281623	      0.91827353	      0.91410471	      0.45849381	      1.65735249	      1.80646475	    -13.72093642	     24.90149192	     24.90149192	     17.34214894	     -3.34966799	     -8.01570916	     31.32255177	     -4.93610414	      1.94770703	     27.07091803	     27.07091803	      5.23783087	    -14.19092201	      4.48127615	     -7.88903113	      1.84421780	      3.27656650	     31.06683375	    -10.69235123	     11.30582039	     76.97260952	     44.99987226	      0.00000000	      0.00000000	     -2.35074497	     -8.14125820	     -3.61145065	     29.37940606	     45.23470242	      0.00000000	      0.00000000
     41.59271429	     -6.02842280	     -5.23212288	      2.91940497	      0.91978964	      0.91549563	      0.45618467	      2.65745876	      1.04760646	    -13.53866409	     28.13838007	     28.13838007	     16.39273347	     -4.40852775	     -8.79958172	     30.53638122	     -4.80183268	      1.75001488	     27.31062410	     27.31062410	      5.90041179	    -14.40482928	      4.30768867	     -8.16770757	      1.67401489	      3.59036180	     29.47189288	    -11.12168994	     11.65606293	     75.60968897	     45.02752118	      0.00000000	      0.00000000	     -1.45117178	     -8.31786383	     -3.74328365	     29.87406410	     45.27381461	      0.00000000	      0.00000000
     41.60600000	     -6.02369132	     -5.06298198	      2.55245832	      0.92101185	      0.91659844	      0.45387971	      4.18043605	      0.20805405	    -13.25297658	     31.78715681	     31.78715681	     15.02456015	     -5.91269181	     -9.82769261	     29.85828413	     -4.63277596	      1.45501210	     27.28874189	     27.28874189	      6.50872814	    -14.55486617	      4.22753026	     -8.16034830	      1.46134614	      3.92365592	     27.88689043	    -11.61432124	     12.04860598	     73.66186743	     45.07300892	      0.00000000	      0.00000000	     -0.54619496	     -8.49998901	     -3.85917190	     30.31589334	     45.31064619	      0.00000000	      0.00000000
     41.61928571	     -6.04820149	     -4.92265835	      2.19542845	      0.92201800	      0.91766045	      0.45156174	      5.91557739	     -0.57424727	    -12.86851325	     35.59543132	     35.59543132	     13.13492617	     -7.81132658	    -11.05266042	     29.17956035	     -4.50015885	      1.08359232	     27.16522009	     27.16522009	      7.06327116	    -14.57694880	      4.17557279	     -8.11267489	      1.31963405	      4.17301944	     26.42429740	    -12.03694736	     12.50282659	     71.15867196	     45.13535039	      0.00000000	      0.00000000	      0.32321680	     -8.70607567	     -3.96119200	     30.72063483	     45.34550432	      0.00000000	      0.00000000
     41.63257143	     -5.96546221	     -4.86460247	      1.93792185	      0.92295418	      0.91883040	      0.44923631	      7.39857993	     -1.16108640	    -12.50344281	     38.79294904	     38.79294904	      8.90169557	    -11.49537418	    -17.40043127	     28.42787457	     -4.44647288	      0.70309146	     27.08152232	     27.08152232	      7.76572599	    -14.32635859	      4.38131532	     -8.06574927	      1.30614345	      3.08249753	     26.66760088	    -11.27350306	     14.35887332	     64.80305473	     45.28055703	      0.00000000	      0.00000000	      0.36190136	     -9.04508934	     -4.61608360	     31.65627260	     45.49237881	      0.00000000	      0.00000000
     41.64585714	     -5.88872810	     -4.64358053	      1.65434221	      0.92361213	      0.91981701	      0.44678664	      9.30951838	     -2.08605905	    -12.28697190	     42.89526633	     42.89526633	      6.86419881	    -13.16598032	    -17.21260373	     27.61723118	     -4.24896289	      0.12862284	     26.85762942	     26.85762942	      8.24419642	    -14.01876554	      4.11750933	     -8.24136267	      1.14662502	      3.24021565	     25.01344342	    -11.81774100	     14.68482050	     63.15700079	     45.31613852	      0.00000000	      0.00000000	      1.30805894	     -9.30030656	     -4.73301861	     32.22107709	     45.52789235	      0.00000000	      0.00000000
